Coordinates
version=1
nRows=14
nColumns=36
inDegrees=yes

Units are S.I. units (second, meters, Newtons, ...)
If the header above contains a line with 'inDegrees', this indicates whether rotational values are in degrees (yes) or radians (no).

endheader
time	pelvis_tilt	pelvis_list	pelvis_rotation	pelvis_tx	pelvis_ty	pelvis_tz	hip_flexion_r	hip_adduction_r	hip_rotation_r	knee_angle_r	knee_angle_r_beta	ankle_angle_r	subtalar_angle_r	mtp_angle_r	hip_flexion_l	hip_adduction_l	hip_rotation_l	knee_angle_l	knee_angle_l_beta	ankle_angle_l	subtalar_angle_l	mtp_angle_l	lumbar_extension	lumbar_bending	lumbar_rotation	arm_flex_r	arm_add_r	arm_rot_r	elbow_flex_r	pro_sup_r	arm_flex_l	arm_add_l	arm_rot_l	elbow_flex_l	pro_sup_l
      2.95000000	    -17.99586583	     -1.35684722	     -0.23915429	      0.50196885	      0.86432519	     -0.00654444	     52.90306630	     -8.79844757	     -5.68591897	     43.34150420	      0.75645195	     -0.83566787	     -3.46213188	     -7.49999987	     51.78578079	     -7.00496160	     -2.99129654	     42.16035411	      0.73583699	     -4.27285202	    -12.25661613	     -7.49999987	    -11.20896557	      4.11694571	     -0.41316088	     36.19711765	     -3.93315538	     73.86555993	    119.16749165	    101.95631998	     44.64600493	     -8.86890969	     54.88527366	    108.23552360	    101.84479631
      2.96666670	    -19.69438433	     -1.00140558	      0.06210773	      0.49741178	      0.81306995	     -0.01010899	     61.76047263	     -9.81817283	     -3.47888225	     57.78221064	      1.00848982	      8.33292435	     -5.52153464	     -7.49999987	     59.54302570	     -6.42879688	     -1.78672030	     54.31898025	      0.94804505	      6.81943027	    -12.51009646	     -7.49999987	    -11.39585620	      4.52732077	     -1.16952018	     36.58679698	     -3.53259564	     78.89313615	    119.39130322	    104.57133703	     43.47419597	     -8.73123841	     54.60369816	    109.81568293	    103.63761155
      2.98333330	    -20.42085854	     -0.80412759	      0.10655458	      0.51096179	      0.77353599	     -0.00706129	     68.60917963	    -10.37293041	     -2.00837344	     70.76360651	      1.23505792	     15.67160355	     -7.21298371	     -7.49999987	     66.20760553	     -6.40043292	     -0.88236766	     66.07450360	      1.15321764	     15.31381730	    -12.91103901	     -7.49999987	    -12.33920065	      4.79480217	     -1.18440201	     37.77103340	     -1.98480329	     77.66058357	    118.05972637	    104.52129491	     43.69653593	     -8.57837578	     56.76022271	    111.06324961	    103.65279724
      3.00000000	    -20.34978048	     -0.70539961	      0.10716906	      0.52022015	      0.74305814	     -0.00882008	     73.73187168	    -10.59185575	     -0.73048284	     80.70436545	      1.40855690	     20.06162857	     -8.55716517	     -7.49999987	     71.02708477	     -6.70556966	     -0.58605772	     75.81022538	      1.32313804	     21.34565551	    -12.63452756	     -7.49999987	    -14.34455376	      4.90338653	     -0.75023931	     37.75879840	     -2.61197749	     75.40593825	    114.79150883	    105.78617234	     42.42822340	     -8.10851681	     54.82913826	    109.07282511	    104.93514711
      3.01666670	    -21.12050048	     -1.00786767	      0.23140389	      0.53021403	      0.71637497	     -0.00087744	     78.15342476	    -10.08632863	      0.00497110	     87.85241624	      1.53331392	     24.06830331	     -9.05123254	     -7.49999987	     75.36392900	     -7.38692048	      0.01607788	     83.29936527	      1.45384819	     26.80283570	    -10.80150600	     -7.49999987	    -16.25108341	      4.96294074	      0.07586893	     37.23210354	     -2.52797610	     73.94885173	    111.47393724	    105.91298377	     41.19813463	     -8.06967555	     52.60356009	    108.09714650	    105.27528775
      3.03333330	    -22.22590805	     -1.13907683	      0.21676004	      0.52523910	      0.68399682	     -0.00478773	     82.44858452	     -9.94277718	      0.72593142	     93.09380320	      1.62479338	     26.95311736	     -8.90395587	     -7.49999987	     80.07383864	     -8.04208860	      0.25618746	     89.71911488	      1.56589396	     30.22891444	     -9.55440370	     -7.49999987	    -18.08912845	      4.73670618	      1.31834639	     37.51593298	     -2.39256747	     73.99520340	    110.98139245	    107.45225173	     41.35233774	     -6.81644711	     58.41617931	    108.39600012	    107.17382190
      3.05000000	    -23.52244683	     -1.36702127	      0.18040766	      0.52809187	      0.66788881	     -0.00144116	     85.82152533	     -9.32747227	      1.11407612	     96.20886521	      1.67916147	     30.35270198	     -7.45382573	     -7.49999987	     83.83110609	     -8.60088334	      0.54877858	     94.16538799	      1.64349606	     33.19938073	     -8.08512160	     -7.49999987	    -20.27548050	      4.59053692	      2.04237096	     37.58881795	     -2.87316104	     72.10738716	    111.37959646	    106.88188772	     40.47626763	     -6.31783127	     62.34015598	    107.17602690	    107.12557661
      3.06666670	    -24.37364564	     -1.66846672	     -0.46027482	      0.54431913	      0.64120196	      0.00717610	     87.85130980	     -8.60431428	      1.26840694	     99.76563252	      1.74123877	     33.17915319	     -6.80662488	     -7.49999987	     86.56053457	     -9.95979117	      1.34584176	     98.46712503	      1.71857554	     35.47000193	     -7.00060195	     -7.49999987	    -21.87958292	      3.76276922	      1.89479123	     37.04011150	     -2.13398616	     72.23194579	    110.55139624	    107.07207290	     33.70859473	     -8.75941365	     61.63654089	    109.55202072	    106.94726104
      3.08333330	    -25.49096954	     -2.01845709	     -1.25775674	      0.54630341	      0.63056858	      0.01134107	     89.32335571	     -8.06797134	      0.94383184	    102.20335517	      1.78378505	     34.43533133	     -7.47034382	     -7.49999987	     89.24237341	    -11.42539052	      2.06317430	    101.76521306	      1.77613803	     37.13525632	     -6.24611782	     -7.49999987	    -22.45118557	      3.40687287	      1.83867067	     36.67397329	     -2.15632439	     71.60253242	    111.59913903	    107.01390162	     33.18179439	     -8.41005907	     63.19380202	    108.92164974	    107.09652265
      3.10000000	    -25.99388561	     -2.06559650	     -1.41044439	      0.54826134	      0.62551726	      0.01002509	     89.84428251	     -8.06244486	      0.70918270	    103.59816838	      1.80812914	     35.53160607	     -8.32309681	     -7.49999987	     90.42968416	    -12.20702588	      1.81409687	    103.24171171	      1.80190779	     38.10473579	     -6.82874707	     -7.49999987	    -23.97091551	      3.17315831	      1.27324711	     36.68056666	     -2.33515405	     70.95959023	    110.67741243	    106.62407468	     33.79941484	     -7.65084691	     62.99624496	    107.84220904	    106.74457589
      3.11666670	    -28.38240734	     -2.47386253	     -2.39853064	      0.55380320	      0.61362747	      0.00954721	     92.36817869	     -6.79822010	     -0.18958708	    104.11302953	      1.81711516	     37.23919833	     -8.29194790	     -7.49999987	     93.53505526	    -13.90755198	      1.89288692	    104.45516595	      1.82308657	     39.39371305	     -5.69423288	     -7.49999987	    -23.38236099	      2.87271945	      2.64064150	     36.99679308	     -2.89636350	     71.56155429	    111.13265681	    103.79747634	     35.10980844	     -6.85912984	     66.10908001	    106.96603612	    104.07911159
      3.13333330	    -30.10364205	     -2.43938680	     -3.49740354	      0.55716034	      0.60480082	      0.01771975	     93.64745643	     -5.70665380	     -0.57982075	    104.16315592	      1.81799003	     38.38130135	     -8.50198991	     -7.49999987	     95.64353940	    -15.34547966	      1.94375524	    105.29412358	      1.83772914	     40.49995115	     -5.70802074	     -7.49999987	    -22.77817565	      1.49335143	      5.61980579	     35.99141488	     -4.46259516	     70.76172420	    113.08881284	    103.51945750	     38.86446462	     -5.66155955	     71.29788084	    104.81082844	    103.91619715
      3.15000000	    -31.61044953	     -2.02755423	     -4.17308179	      0.55336809	      0.59663146	      0.01886394	     95.33819463	     -5.18117053	     -0.59561635	    104.38800150	      1.82191433	     38.81991662	     -9.08338605	     -7.49999987	     97.63617225	    -15.99055438	      1.74790906	    106.07202983	      1.85130616	     41.48105324	     -6.64392995	     -7.49999987	    -21.94070468	      0.22131959	      6.53009107	     37.81183798	     -4.46101957	     71.28208498	    113.84887956	    103.86856351	     39.89932380	     -4.31173207	     71.10061039	    105.68459530	    104.11356568
      3.16666670	    -33.48438004	     -1.73440057	     -4.69947597	      0.55774958	      0.59544685	      0.01959178	     97.49512253	     -4.63647113	     -0.95273253	    104.45188697	      1.82302934	     38.96180783	     -9.86125181	     -7.49999987	     99.84547856	    -16.30958038	      1.69723557	    106.39884208	      1.85701011	     42.25012867	     -7.76138493	     -7.49999987	    -20.67667109	     -0.47305321	      7.24363208	     40.27542157	     -4.92588534	     71.14852426	    114.26061880	    103.94312284	     42.72736742	     -3.17369864	     71.10146850	    106.16951402	    104.18073381
